<svg width="100" height="48" viewBox="0 0 100 48" fill="none" xmlns="http://www.w3.org/2000/svg">
<path d="M28.6009 35.04C28.6009 35.8667 28.4543 36.48 28.1609 36.88C27.8676 37.28 27.4009 37.6667 26.7609 38.04C26.3876 38.2533 25.9209 38.4667 25.3609 38.68C24.8009 38.8667 24.1876 39.0267 23.5209 39.16C22.8543 39.32 22.1476 39.44 21.4009 39.52C20.6809 39.6 19.9609 39.64 19.2409 39.64C17.3209 39.64 15.5209 39.3867 13.8409 38.88C12.1609 38.3467 10.6943 37.56 9.44094 36.52C8.21427 35.4533 7.24094 34.1333 6.52094 32.56C5.80094 30.9867 5.44094 29.16 5.44094 27.08C5.44094 24.8933 5.82761 22.9867 6.60094 21.36C7.40094 19.7333 8.44094 18.3867 9.72094 17.32C11.0276 16.2267 12.5076 15.4133 14.1609 14.88C15.8409 14.3467 17.5609 14.08 19.3209 14.08C21.8543 14.08 23.8543 14.4933 25.3209 15.32C26.8143 16.12 27.5609 17.1733 27.5609 18.48C27.5609 19.1733 27.3876 19.7733 27.0409 20.28C26.6943 20.7867 26.2943 21.1867 25.8409 21.48C25.1743 21.08 24.3343 20.6933 23.3209 20.32C22.3343 19.92 21.2143 19.72 19.9609 19.72C17.7209 19.72 15.9343 20.36 14.6009 21.64C13.2943 22.92 12.6409 24.6933 12.6409 26.96C12.6409 28.1867 12.8143 29.2533 13.1609 30.16C13.5343 31.04 14.0276 31.7733 14.6409 32.36C15.2543 32.92 15.9609 33.3467 16.7609 33.64C17.5609 33.9067 18.4143 34.04 19.3209 34.04C19.9076 34.04 20.4276 33.9867 20.8809 33.88C21.3343 33.7733 21.6809 33.6533 21.9209 33.52V29.76H17.6409C17.4809 29.4667 17.3209 29.08 17.1609 28.6C17.0276 28.12 16.9609 27.6133 16.9609 27.08C16.9609 26.12 17.1743 25.4267 17.6009 25C18.0543 24.5733 18.6276 24.36 19.3209 24.36H26.0809C26.8809 24.36 27.4943 24.5867 27.9209 25.04C28.3743 25.4667 28.6009 26.08 28.6009 26.88V35.04ZM41.0338 34.68C41.4871 34.68 41.9804 34.64 42.5138 34.56C43.0738 34.4533 43.4871 34.32 43.7538 34.16V30.96L40.8738 31.2C40.1271 31.2533 39.5138 31.4133 39.0338 31.68C38.5538 31.9467 38.3138 32.3467 38.3138 32.88C38.3138 33.4133 38.5138 33.8533 38.9138 34.2C39.3404 34.52 40.0471 34.68 41.0338 34.68ZM40.7138 18.96C42.1538 18.96 43.4604 19.1067 44.6338 19.4C45.8338 19.6933 46.8471 20.1467 47.6738 20.76C48.5271 21.3467 49.1804 22.1067 49.6338 23.04C50.0871 23.9467 50.3138 25.0267 50.3138 26.28V35.24C50.3138 35.9333 50.1138 36.5067 49.7138 36.96C49.3404 37.3867 48.8871 37.76 48.3538 38.08C46.6204 39.12 44.1804 39.64 41.0338 39.64C39.6204 39.64 38.3404 39.5067 37.1938 39.24C36.0738 38.9733 35.1004 38.5733 34.2738 38.04C33.4738 37.5067 32.8471 36.8267 32.3938 36C31.9671 35.1733 31.7538 34.2133 31.7538 33.12C31.7538 31.28 32.3004 29.8667 33.3938 28.88C34.4871 27.8933 36.1804 27.28 38.4738 27.04L43.7138 26.48V26.2C43.7138 25.4267 43.3671 24.88 42.6738 24.56C42.0071 24.2133 41.0338 24.04 39.7538 24.04C38.7404 24.04 37.7538 24.1467 36.7938 24.36C35.8338 24.5733 34.9671 24.84 34.1938 25.16C33.8471 24.92 33.5538 24.56 33.3138 24.08C33.0738 23.5733 32.9538 23.0533 32.9538 22.52C32.9538 21.8267 33.1138 21.28 33.4338 20.88C33.7804 20.4533 34.3004 20.0933 34.9938 19.8C35.7671 19.5067 36.6738 19.2933 37.7138 19.16C38.7804 19.0267 39.7804 18.96 40.7138 18.96Z" fill="white"/>
<path d="M71.5866 33.04C71.2399 33.3333 70.7866 33.5733 70.2266 33.76C69.6932 33.92 69.0666 34 68.3466 34C67.3866 34 66.5866 33.88 65.9466 33.64C65.3332 33.4 64.9332 32.9867 64.7466 32.4C63.9999 30.0533 63.3866 28.16 62.9066 26.72C62.4266 25.2533 62.0532 23.9733 61.7866 22.88H61.5866C61.5066 24.4533 61.4399 25.8933 61.3866 27.2C61.3599 28.48 61.3332 29.7333 61.3066 30.96C61.3066 32.1867 61.2799 33.4267 61.2266 34.68C61.1999 35.9333 61.1466 37.32 61.0666 38.84C60.7199 38.9733 60.2666 39.08 59.7066 39.16C59.1466 39.2667 58.5866 39.32 58.0266 39.32C56.8532 39.32 55.9332 39.1333 55.2666 38.76C54.6266 38.3867 54.3066 37.7067 54.3066 36.72L55.4666 16.32C55.6799 15.9733 56.1466 15.6 56.8666 15.2C57.5866 14.8 58.5999 14.6 59.9066 14.6C61.3199 14.6 62.4266 14.8267 63.2266 15.28C64.0266 15.7067 64.6132 16.4133 64.9866 17.4C65.2266 18.04 65.4799 18.7733 65.7466 19.6C66.0399 20.4267 66.3199 21.28 66.5866 22.16C66.8799 23.04 67.1599 23.92 67.4266 24.8C67.6932 25.6533 67.9332 26.4267 68.1466 27.12H68.3466C68.9866 24.88 69.6266 22.72 70.2666 20.64C70.9066 18.5333 71.4932 16.7733 72.0266 15.36C72.4266 15.1467 72.9332 14.9733 73.5466 14.84C74.1866 14.68 74.8932 14.6 75.6666 14.6C76.9732 14.6 78.0399 14.8 78.8666 15.2C79.6932 15.5733 80.1732 16.12 80.3066 16.84C80.4132 17.3733 80.5199 18.2 80.6266 19.32C80.7599 20.4133 80.8932 21.6533 81.0266 23.04C81.1599 24.4267 81.2932 25.8933 81.4266 27.44C81.5599 28.9867 81.6799 30.48 81.7866 31.92C81.9199 33.3333 82.0266 34.64 82.1066 35.84C82.1866 37.0133 82.2399 37.92 82.2666 38.56C81.8132 38.8267 81.3332 39.0133 80.8266 39.12C80.3466 39.2533 79.7199 39.32 78.9466 39.32C77.9332 39.32 77.0799 39.1467 76.3866 38.8C75.6932 38.4533 75.3199 37.7733 75.2666 36.76C75.1066 33.8533 74.9999 31.24 74.9466 28.92C74.9199 26.6 74.8666 24.6533 74.7866 23.08H74.5866C74.3199 24.12 73.9332 25.4267 73.4266 27C72.9199 28.5733 72.3066 30.5867 71.5866 33.04ZM93.5366 38.84C93.2432 38.92 92.7766 39 92.1366 39.08C91.5232 39.16 90.9099 39.2 90.2966 39.2C89.6832 39.2 89.1366 39.1467 88.6566 39.04C88.2032 38.96 87.8166 38.8 87.4966 38.56C87.1766 38.32 86.9366 37.9867 86.7766 37.56C86.6166 37.1333 86.5366 36.5733 86.5366 35.88V14.76C86.8299 14.7067 87.2966 14.64 87.9366 14.56C88.5766 14.4533 89.1899 14.4 89.7766 14.4C90.3899 14.4 90.9232 14.4533 91.3766 14.56C91.8566 14.64 92.2566 14.8 92.5766 15.04C92.8966 15.28 93.1366 15.6133 93.2966 16.04C93.4566 16.4667 93.5366 17.0267 93.5366 17.72V38.84Z" fill="#F69946"/>
<path d="M90.4857 7.1984C90.4857 7.1984 85.3101 6.95015 85.6053 10.9527C85.9076 15.013 89.0424 11.7004 92.0436 13.5923C94.7641 15.312 96.949 8.019 90.4857 7.1984Z" fill="white"/>
<path d="M91.0793 5.71974C91.0793 5.71974 93.0674 1.57548 90.2248 1.52779C87.3878 1.48183 89.0453 8.19617 91.0793 5.71974Z" fill="white"/>
<path d="M87.2298 6.9073C87.2298 6.9073 88.0135 2.38275 85.2688 3.10547C82.5241 3.8282 85.9505 9.84259 87.2298 6.9073Z" fill="white"/>
<path d="M94.334 7.30664C94.334 7.30664 97.7148 4.19879 95.1013 3.09801C92.4879 1.99722 91.5353 8.85215 94.334 7.30664Z" fill="white"/>
<path d="M96.2408 11.3262C96.2408 11.3262 99.5734 10.1537 97.9485 8.42306C96.3235 6.69245 93.7571 11.5178 96.2408 11.3262Z" fill="white"/>
</svg>
