<svg width="100" height="49" viewBox="0 0 100 49" fill="none" xmlns="http://www.w3.org/2000/svg">
<path d="M28.6009 36.04C28.6009 36.8667 28.4543 37.48 28.1609 37.88C27.8676 38.28 27.4009 38.6667 26.7609 39.04C26.3876 39.2533 25.9209 39.4667 25.3609 39.68C24.8009 39.8667 24.1876 40.0267 23.5209 40.16C22.8543 40.32 22.1476 40.44 21.4009 40.52C20.6809 40.6 19.9609 40.64 19.2409 40.64C17.3209 40.64 15.5209 40.3867 13.8409 39.88C12.1609 39.3467 10.6943 38.56 9.44094 37.52C8.21427 36.4533 7.24094 35.1333 6.52094 33.56C5.80094 31.9867 5.44094 30.16 5.44094 28.08C5.44094 25.8933 5.82761 23.9867 6.60094 22.36C7.40094 20.7333 8.44094 19.3867 9.72094 18.32C11.0276 17.2267 12.5076 16.4133 14.1609 15.88C15.8409 15.3467 17.5609 15.08 19.3209 15.08C21.8543 15.08 23.8543 15.4933 25.3209 16.32C26.8143 17.12 27.5609 18.1733 27.5609 19.48C27.5609 20.1733 27.3876 20.7733 27.0409 21.28C26.6943 21.7867 26.2943 22.1867 25.8409 22.48C25.1743 22.08 24.3343 21.6933 23.3209 21.32C22.3343 20.92 21.2143 20.72 19.9609 20.72C17.7209 20.72 15.9343 21.36 14.6009 22.64C13.2943 23.92 12.6409 25.6933 12.6409 27.96C12.6409 29.1867 12.8143 30.2533 13.1609 31.16C13.5343 32.04 14.0276 32.7733 14.6409 33.36C15.2543 33.92 15.9609 34.3467 16.7609 34.64C17.5609 34.9067 18.4143 35.04 19.3209 35.04C19.9076 35.04 20.4276 34.9867 20.8809 34.88C21.3343 34.7733 21.6809 34.6533 21.9209 34.52V30.76H17.6409C17.4809 30.4667 17.3209 30.08 17.1609 29.6C17.0276 29.12 16.9609 28.6133 16.9609 28.08C16.9609 27.12 17.1743 26.4267 17.6009 26C18.0543 25.5733 18.6276 25.36 19.3209 25.36H26.0809C26.8809 25.36 27.4943 25.5867 27.9209 26.04C28.3743 26.4667 28.6009 27.08 28.6009 27.88V36.04ZM41.0338 35.68C41.4871 35.68 41.9804 35.64 42.5138 35.56C43.0738 35.4533 43.4871 35.32 43.7538 35.16V31.96L40.8738 32.2C40.1271 32.2533 39.5138 32.4133 39.0338 32.68C38.5538 32.9467 38.3138 33.3467 38.3138 33.88C38.3138 34.4133 38.5138 34.8533 38.9138 35.2C39.3404 35.52 40.0471 35.68 41.0338 35.68ZM40.7138 19.96C42.1538 19.96 43.4604 20.1067 44.6338 20.4C45.8338 20.6933 46.8471 21.1467 47.6738 21.76C48.5271 22.3467 49.1804 23.1067 49.6338 24.04C50.0871 24.9467 50.3138 26.0267 50.3138 27.28V36.24C50.3138 36.9333 50.1138 37.5067 49.7138 37.96C49.3404 38.3867 48.8871 38.76 48.3538 39.08C46.6204 40.12 44.1804 40.64 41.0338 40.64C39.6204 40.64 38.3404 40.5067 37.1938 40.24C36.0738 39.9733 35.1004 39.5733 34.2738 39.04C33.4738 38.5067 32.8471 37.8267 32.3938 37C31.9671 36.1733 31.7538 35.2133 31.7538 34.12C31.7538 32.28 32.3004 30.8667 33.3938 29.88C34.4871 28.8933 36.1804 28.28 38.4738 28.04L43.7138 27.48V27.2C43.7138 26.4267 43.3671 25.88 42.6738 25.56C42.0071 25.2133 41.0338 25.04 39.7538 25.04C38.7404 25.04 37.7538 25.1467 36.7938 25.36C35.8338 25.5733 34.9671 25.84 34.1938 26.16C33.8471 25.92 33.5538 25.56 33.3138 25.08C33.0738 24.5733 32.9538 24.0533 32.9538 23.52C32.9538 22.8267 33.1138 22.28 33.4338 21.88C33.7804 21.4533 34.3004 21.0933 34.9938 20.8C35.7671 20.5067 36.6738 20.2933 37.7138 20.16C38.7804 20.0267 39.7804 19.96 40.7138 19.96Z" fill="white"/>
<path d="M71.5866 34.04C71.2399 34.3333 70.7866 34.5733 70.2266 34.76C69.6932 34.92 69.0666 35 68.3466 35C67.3866 35 66.5866 34.88 65.9466 34.64C65.3332 34.4 64.9332 33.9867 64.7466 33.4C63.9999 31.0533 63.3866 29.16 62.9066 27.72C62.4266 26.2533 62.0532 24.9733 61.7866 23.88H61.5866C61.5066 25.4533 61.4399 26.8933 61.3866 28.2C61.3599 29.48 61.3332 30.7333 61.3066 31.96C61.3066 33.1867 61.2799 34.4267 61.2266 35.68C61.1999 36.9333 61.1466 38.32 61.0666 39.84C60.7199 39.9733 60.2666 40.08 59.7066 40.16C59.1466 40.2667 58.5866 40.32 58.0266 40.32C56.8532 40.32 55.9332 40.1333 55.2666 39.76C54.6266 39.3867 54.3066 38.7067 54.3066 37.72L55.4666 17.32C55.6799 16.9733 56.1466 16.6 56.8666 16.2C57.5866 15.8 58.5999 15.6 59.9066 15.6C61.3199 15.6 62.4266 15.8267 63.2266 16.28C64.0266 16.7067 64.6132 17.4133 64.9866 18.4C65.2266 19.04 65.4799 19.7733 65.7466 20.6C66.0399 21.4267 66.3199 22.28 66.5866 23.16C66.8799 24.04 67.1599 24.92 67.4266 25.8C67.6932 26.6533 67.9332 27.4267 68.1466 28.12H68.3466C68.9866 25.88 69.6266 23.72 70.2666 21.64C70.9066 19.5333 71.4932 17.7733 72.0266 16.36C72.4266 16.1467 72.9332 15.9733 73.5466 15.84C74.1866 15.68 74.8932 15.6 75.6666 15.6C76.9732 15.6 78.0399 15.8 78.8666 16.2C79.6932 16.5733 80.1732 17.12 80.3066 17.84C80.4132 18.3733 80.5199 19.2 80.6266 20.32C80.7599 21.4133 80.8932 22.6533 81.0266 24.04C81.1599 25.4267 81.2932 26.8933 81.4266 28.44C81.5599 29.9867 81.6799 31.48 81.7866 32.92C81.9199 34.3333 82.0266 35.64 82.1066 36.84C82.1866 38.0133 82.2399 38.92 82.2666 39.56C81.8132 39.8267 81.3332 40.0133 80.8266 40.12C80.3466 40.2533 79.7199 40.32 78.9466 40.32C77.9332 40.32 77.0799 40.1467 76.3866 39.8C75.6932 39.4533 75.3199 38.7733 75.2666 37.76C75.1066 34.8533 74.9999 32.24 74.9466 29.92C74.9199 27.6 74.8666 25.6533 74.7866 24.08H74.5866C74.3199 25.12 73.9332 26.4267 73.4266 28C72.9199 29.5733 72.3066 31.5867 71.5866 34.04ZM93.5366 39.84C93.2432 39.92 92.7766 40 92.1366 40.08C91.5232 40.16 90.9099 40.2 90.2966 40.2C89.6832 40.2 89.1366 40.1467 88.6566 40.04C88.2032 39.96 87.8166 39.8 87.4966 39.56C87.1766 39.32 86.9366 38.9867 86.7766 38.56C86.6166 38.1333 86.5366 37.5733 86.5366 36.88V15.76C86.8299 15.7067 87.2966 15.64 87.9366 15.56C88.5766 15.4533 89.1899 15.4 89.7766 15.4C90.3899 15.4 90.9232 15.4533 91.3766 15.56C91.8566 15.64 92.2566 15.8 92.5766 16.04C92.8966 16.28 93.1366 16.6133 93.2966 17.04C93.4566 17.4667 93.5366 18.0267 93.5366 18.72V39.84Z" fill="#F69946"/>
<path d="M90.4033 7.26026C90.4033 7.26026 85.2045 7.36209 85.828 11.3089C86.4632 15.3124 89.3282 11.8188 92.4861 13.492C95.349 15.0135 96.9373 7.63909 90.4033 7.26026Z" fill="white"/>
<path d="M90.9307 5.72067C90.9307 5.72067 92.5863 1.46588 89.7278 1.61022C86.8752 1.75591 89.0918 8.32022 90.9307 5.72067Z" fill="white"/>
<path d="M87.1796 7.19442C87.1796 7.19442 87.5939 2.64619 84.9003 3.54919C82.2067 4.45218 86.1376 10.197 87.1796 7.19442Z" fill="white"/>
<path d="M94.2891 7.05337C94.2891 7.05337 97.4291 3.73473 94.7137 2.81641C91.9983 1.8981 91.6054 8.77909 94.2891 7.05337Z" fill="white"/>
<path d="M96.4828 10.9155C96.4828 10.9155 99.7295 9.52597 97.9573 7.91597C96.185 6.30598 94.0071 11.2732 96.4828 10.9155Z" fill="white"/>
</svg>
